<mxfile host="app.diagrams.net" agent="Mozilla/5.0 (Windows NT 10.0; Win64; x64; rv:130.0) Gecko/20100101 Firefox/130.0" version="24.7.16">
  <diagram name="Page-1" id="sbyNNd2j1UO8sUcXuag3">
    <mxGraphModel dx="564" dy="419" grid="1" gridSize="10" guides="1" tooltips="1" connect="1" arrows="1" fold="1" page="1" pageScale="1" pageWidth="850" pageHeight="1100" math="0" shadow="0">
      <root>
        <mxCell id="0" />
        <mxCell id="1" parent="0" />
        <mxCell id="fqxUzCbWjnlFnFz9UkCs-10" style="edgeStyle=orthogonalEdgeStyle;rounded=0;orthogonalLoop=1;jettySize=auto;html=1;exitX=0.5;exitY=1;exitDx=0;exitDy=0;entryX=0.5;entryY=0;entryDx=0;entryDy=0;" edge="1" parent="1" source="fqxUzCbWjnlFnFz9UkCs-1" target="fqxUzCbWjnlFnFz9UkCs-4">
          <mxGeometry relative="1" as="geometry">
            <Array as="points">
              <mxPoint x="430" y="40" />
              <mxPoint x="430" y="100" />
              <mxPoint x="380" y="100" />
            </Array>
          </mxGeometry>
        </mxCell>
        <mxCell id="fqxUzCbWjnlFnFz9UkCs-11" style="edgeStyle=orthogonalEdgeStyle;rounded=0;orthogonalLoop=1;jettySize=auto;html=1;exitX=0.5;exitY=1;exitDx=0;exitDy=0;entryX=0.5;entryY=0;entryDx=0;entryDy=0;" edge="1" parent="1" source="fqxUzCbWjnlFnFz9UkCs-1" target="fqxUzCbWjnlFnFz9UkCs-5">
          <mxGeometry relative="1" as="geometry">
            <Array as="points">
              <mxPoint x="460" y="40" />
              <mxPoint x="460" y="100" />
              <mxPoint x="540" y="100" />
            </Array>
          </mxGeometry>
        </mxCell>
        <mxCell id="fqxUzCbWjnlFnFz9UkCs-12" style="edgeStyle=orthogonalEdgeStyle;rounded=0;orthogonalLoop=1;jettySize=auto;html=1;exitX=0.5;exitY=1;exitDx=0;exitDy=0;entryX=0.5;entryY=0;entryDx=0;entryDy=0;" edge="1" parent="1" source="fqxUzCbWjnlFnFz9UkCs-1" target="fqxUzCbWjnlFnFz9UkCs-6">
          <mxGeometry relative="1" as="geometry">
            <Array as="points">
              <mxPoint x="480" y="40" />
              <mxPoint x="480" y="70" />
              <mxPoint x="700" y="70" />
            </Array>
          </mxGeometry>
        </mxCell>
        <mxCell id="fqxUzCbWjnlFnFz9UkCs-14" style="edgeStyle=orthogonalEdgeStyle;rounded=0;orthogonalLoop=1;jettySize=auto;html=1;exitX=0.25;exitY=1;exitDx=0;exitDy=0;entryX=0.5;entryY=0;entryDx=0;entryDy=0;" edge="1" parent="1" source="fqxUzCbWjnlFnFz9UkCs-1" target="fqxUzCbWjnlFnFz9UkCs-13">
          <mxGeometry relative="1" as="geometry">
            <Array as="points">
              <mxPoint x="410" y="80" />
              <mxPoint x="220" y="80" />
            </Array>
          </mxGeometry>
        </mxCell>
        <mxCell id="fqxUzCbWjnlFnFz9UkCs-1" value="App" style="rounded=0;whiteSpace=wrap;html=1;" vertex="1" parent="1">
          <mxGeometry x="380" width="120" height="40" as="geometry" />
        </mxCell>
        <mxCell id="fqxUzCbWjnlFnFz9UkCs-3" value="TopNavBar" style="rounded=0;whiteSpace=wrap;html=1;" vertex="1" parent="1">
          <mxGeometry x="160" y="280" width="120" height="40" as="geometry" />
        </mxCell>
        <mxCell id="fqxUzCbWjnlFnFz9UkCs-16" style="edgeStyle=orthogonalEdgeStyle;rounded=0;orthogonalLoop=1;jettySize=auto;html=1;exitX=0.25;exitY=1;exitDx=0;exitDy=0;entryX=0.75;entryY=0;entryDx=0;entryDy=0;" edge="1" parent="1" source="fqxUzCbWjnlFnFz9UkCs-4" target="fqxUzCbWjnlFnFz9UkCs-3">
          <mxGeometry relative="1" as="geometry" />
        </mxCell>
        <mxCell id="fqxUzCbWjnlFnFz9UkCs-4" value="&lt;div&gt;LoginPage&lt;/div&gt;" style="rounded=0;whiteSpace=wrap;html=1;" vertex="1" parent="1">
          <mxGeometry x="320" y="160" width="120" height="40" as="geometry" />
        </mxCell>
        <mxCell id="fqxUzCbWjnlFnFz9UkCs-5" value="SignUpPage" style="rounded=0;whiteSpace=wrap;html=1;" vertex="1" parent="1">
          <mxGeometry x="480" y="160" width="120" height="40" as="geometry" />
        </mxCell>
        <mxCell id="fqxUzCbWjnlFnFz9UkCs-6" value="HomePage" style="rounded=0;whiteSpace=wrap;html=1;" vertex="1" parent="1">
          <mxGeometry x="640" y="160" width="120" height="40" as="geometry" />
        </mxCell>
        <mxCell id="fqxUzCbWjnlFnFz9UkCs-15" style="edgeStyle=orthogonalEdgeStyle;rounded=0;orthogonalLoop=1;jettySize=auto;html=1;exitX=0.5;exitY=1;exitDx=0;exitDy=0;entryX=0.5;entryY=0;entryDx=0;entryDy=0;" edge="1" parent="1" source="fqxUzCbWjnlFnFz9UkCs-13" target="fqxUzCbWjnlFnFz9UkCs-3">
          <mxGeometry relative="1" as="geometry" />
        </mxCell>
        <mxCell id="fqxUzCbWjnlFnFz9UkCs-13" value="WelcomePage" style="rounded=0;whiteSpace=wrap;html=1;" vertex="1" parent="1">
          <mxGeometry x="160" y="160" width="120" height="40" as="geometry" />
        </mxCell>
      </root>
    </mxGraphModel>
  </diagram>
</mxfile>
